<svg width="32" height="32" viewBox="0 0 32 32" fill="none" xmlns="http://www.w3.org/2000/svg">
<path fill-rule="evenodd" clip-rule="evenodd" d="M11.4519 9.29213L4.09672 13.5966C3.09151 14.1937 2.74827 15.4875 3.33669 16.5076C3.9251 17.5278 5.2 17.8761 6.20522 17.279L13.5604 12.9745C14.5656 12.3774 14.9089 11.0836 14.3205 10.0634C13.7566 9.04332 12.4571 8.69498 11.4519 9.29213Z" fill="#EA4334"/>
<path fill-rule="evenodd" clip-rule="evenodd" d="M13.5116 17.9508L6.15639 13.6464C5.15118 13.0492 3.85176 13.3976 3.28786 14.4177C2.69944 15.4378 3.04269 16.7565 4.0479 17.3288L11.4031 21.6332C12.4083 22.2303 13.7077 21.882 14.2716 20.8619C14.86 19.8418 14.5168 18.5231 13.5116 17.9508Z" fill="#4285F4"/>
<path fill-rule="evenodd" clip-rule="evenodd" d="M18.4148 18.0257L25.77 13.7213C26.7753 13.1242 28.0747 13.4725 28.6386 14.4926C29.227 15.5128 28.8838 16.8315 27.8785 17.4037L20.5233 21.7081C19.5181 22.3053 18.2187 21.957 17.6548 20.9368C17.0664 19.9167 17.4096 18.598 18.4148 18.0257Z" fill="#FCBC05"/>
<path fill-rule="evenodd" clip-rule="evenodd" d="M20.5971 9.36635L27.9523 13.6708C28.9575 14.2679 29.3007 15.5617 28.7123 16.5819C28.1239 17.602 26.849 17.9503 25.8438 17.3532L18.4886 13.0487C17.4834 12.4516 17.1401 11.1578 17.7285 10.1377C18.2924 9.11754 19.5919 8.7692 20.5971 9.36635Z" fill="#0D9D58"/>
</svg>
